<?xml version="1.0" encoding="UTF-8" standalone="no"?>
<!-- Created with Inkscape (http://www.inkscape.org/) -->

<svg
   xmlns:dc="http://purl.org/dc/elements/1.1/"
   xmlns:cc="http://creativecommons.org/ns#"
   xmlns:rdf="http://www.w3.org/1999/02/22-rdf-syntax-ns#"
   xmlns:svg="http://www.w3.org/2000/svg"
   xmlns="http://www.w3.org/2000/svg"
   xmlns:xlink="http://www.w3.org/1999/xlink"
   xmlns:sodipodi="http://sodipodi.sourceforge.net/DTD/sodipodi-0.dtd"
   xmlns:inkscape="http://www.inkscape.org/namespaces/inkscape"
   id="svg2"
   sodipodi:version="0.32"
   inkscape:version="1.2.2 (b0a8486541, 2022-12-01)"
   width="128"
   height="128"
   sodipodi:docname="configure-ndiswrapper.svg"
   inkscape:output_extension="org.inkscape.output.svg.inkscape"
   version="1.0"
   inkscape:export-filename="/home/pinheiro/pics/oxygen/scalable/apps/akregator.png"
   inkscape:export-xdpi="180"
   inkscape:export-ydpi="180">
  <metadata
     id="metadata7">
    <rdf:RDF>
      <cc:Work
         rdf:about="">
        <dc:format>image/svg+xml</dc:format>
        <dc:type
           rdf:resource="http://purl.org/dc/dcmitype/StillImage" />
        <dc:title />
      </cc:Work>
    </rdf:RDF>
  </metadata>
  <defs
     id="defs5">
    <linearGradient
       id="linearGradient4325">
      <stop
         style="stop-color:#ffffff;stop-opacity:1;"
         offset="0"
         id="stop4327" />
      <stop
         id="stop4333"
         offset="0.5"
         style="stop-color:#ffffff;stop-opacity:0.71636361;" />
      <stop
         style="stop-color:#ffffff;stop-opacity:0;"
         offset="1"
         id="stop4329" />
    </linearGradient>
    <linearGradient
       inkscape:collect="always"
       id="linearGradient4145">
      <stop
         style="stop-color:#ffffff;stop-opacity:1;"
         offset="0"
         id="stop4147" />
      <stop
         style="stop-color:#ffffff;stop-opacity:0;"
         offset="1"
         id="stop4149" />
    </linearGradient>
    <linearGradient
       id="linearGradient3964">
      <stop
         style="stop-color:#ffca03;stop-opacity:1;"
         offset="0"
         id="stop3966" />
      <stop
         style="stop-color:#ffca03;stop-opacity:0;"
         offset="1"
         id="stop3968" />
    </linearGradient>
    <linearGradient
       inkscape:collect="always"
       id="linearGradient3946">
      <stop
         style="stop-color:#ffffff;stop-opacity:1;"
         offset="0"
         id="stop3948" />
      <stop
         style="stop-color:#ffffff;stop-opacity:0;"
         offset="1"
         id="stop3950" />
    </linearGradient>
    <linearGradient
       inkscape:collect="always"
       id="linearGradient3936">
      <stop
         style="stop-color:#ffffff;stop-opacity:1;"
         offset="0"
         id="stop3938" />
      <stop
         style="stop-color:#ffffff;stop-opacity:0;"
         offset="1"
         id="stop3940" />
    </linearGradient>
    <linearGradient
       id="linearGradient3908">
      <stop
         style="stop-color:#b20002;stop-opacity:1;"
         offset="0"
         id="stop3910" />
      <stop
         style="stop-color:#ee0b00;stop-opacity:1;"
         offset="1"
         id="stop3912" />
    </linearGradient>
    <linearGradient
       id="linearGradient6666">
      <stop
         style="stop-color:#f96668;stop-opacity:1;"
         offset="0"
         id="stop6668" />
      <stop
         style="stop-color:#f60000;stop-opacity:1;"
         offset="1"
         id="stop6670" />
    </linearGradient>
    <filter
       inkscape:collect="always"
       id="filter4012"
       x="-0.075518401"
       width="1.1510368"
       y="-0.14957229"
       height="1.2991446">
      <feGaussianBlur
         inkscape:collect="always"
         stdDeviation="0.59424154"
         id="feGaussianBlur4014" />
    </filter>
    <filter
       inkscape:collect="always"
       id="filter4054"
       x="-0.026567443"
       width="1.0531349"
       y="-0.24834769"
       height="1.4966954">
      <feGaussianBlur
         inkscape:collect="always"
         stdDeviation="0.8790991"
         id="feGaussianBlur4056" />
    </filter>
    <filter
       inkscape:collect="always"
       id="filter4068">
      <feGaussianBlur
         inkscape:collect="always"
         stdDeviation="0.24186311"
         id="feGaussianBlur4070" />
    </filter>
    <filter
       inkscape:collect="always"
       id="filter4082"
       x="-0.0559906"
       width="1.1119812"
       y="-0.48370043"
       height="1.9674009">
      <feGaussianBlur
         inkscape:collect="always"
         stdDeviation="1.9044657"
         id="feGaussianBlur4084" />
    </filter>
    <radialGradient
       inkscape:collect="always"
       xlink:href="#linearGradient3964"
       id="radialGradient4107"
       gradientUnits="userSpaceOnUse"
       gradientTransform="matrix(1.3469039,-0.3547571,0.1361116,0.516774,-86.020399,58.954588)"
       cx="222.95265"
       cy="16.636154"
       fx="222.95265"
       fy="16.636154"
       r="8.2704572" />
    <radialGradient
       inkscape:collect="always"
       xlink:href="#linearGradient4325"
       id="radialGradient4331"
       cx="101.26279"
       cy="20.264956"
       fx="101.26279"
       fy="20.264956"
       r="2.0894687"
       gradientTransform="matrix(1,0,0,2,0,-20.264956)"
       gradientUnits="userSpaceOnUse" />
    <filter
       inkscape:collect="always"
       id="filter4339">
      <feGaussianBlur
         inkscape:collect="always"
         stdDeviation="0.21604708"
         id="feGaussianBlur4341" />
    </filter>
    <linearGradient
       inkscape:collect="always"
       xlink:href="#linearGradient4145"
       id="linearGradient10382"
       gradientUnits="userSpaceOnUse"
       x1="-220.91794"
       y1="-40.74456"
       x2="-199.07576"
       y2="-1.9921155"
       gradientTransform="matrix(1.0845408,0,0,1.0845408,135.45564,44.687354)" />
    <linearGradient
       inkscape:collect="always"
       xlink:href="#linearGradient3946"
       id="linearGradient10387"
       gradientUnits="userSpaceOnUse"
       gradientTransform="matrix(1.0845408,0,0,1.0845408,-139.80245,-2.3924812)"
       x1="96.448334"
       y1="-5.29988"
       x2="222.02668"
       y2="12.231272" />
    <linearGradient
       inkscape:collect="always"
       xlink:href="#linearGradient3936"
       id="linearGradient10390"
       gradientUnits="userSpaceOnUse"
       gradientTransform="matrix(1.0962781,0,0,1.0962781,-247.4002,-3.1149459)"
       x1="223.99249"
       y1="-16"
       x2="316.53125"
       y2="52.312439" />
    <radialGradient
       inkscape:collect="always"
       xlink:href="#linearGradient6666"
       id="radialGradient10394"
       gradientUnits="userSpaceOnUse"
       gradientTransform="matrix(1.1993319,0,0,1.2896057,-111.089,-50.352595)"
       spreadMethod="pad"
       cx="42.700352"
       cy="103.5803"
       fx="42.700352"
       fy="103.5803"
       r="42.559486" />
    <linearGradient
       inkscape:collect="always"
       xlink:href="#linearGradient3908"
       id="linearGradient10398"
       gradientUnits="userSpaceOnUse"
       gradientTransform="matrix(-1.0792904,-0.10658808,0,1.0845408,-139.80245,-2.3924812)"
       x1="-249.20644"
       y1="71.508125"
       x2="-192.93401"
       y2="-26.961451" />
    <linearGradient
       inkscape:collect="always"
       xlink:href="#linearGradient4145"
       id="linearGradient3037"
       gradientUnits="userSpaceOnUse"
       gradientTransform="matrix(-1.0792904,-0.10658812,0,1.0845408,45.200117,31.374842)"
       x1="-220.91794"
       y1="-40.74456"
       x2="-199.07576"
       y2="-1.9921155" />
    <linearGradient
       inkscape:collect="always"
       xlink:href="#linearGradient4145"
       id="linearGradient3039"
       gradientUnits="userSpaceOnUse"
       gradientTransform="matrix(-1.0792904,-0.10658812,0,1.0845408,45.200117,31.374842)"
       x1="-220.91794"
       y1="-40.74456"
       x2="-199.07576"
       y2="-1.9921155" />
    <linearGradient
       inkscape:collect="always"
       xlink:href="#linearGradient4145"
       id="linearGradient3041"
       gradientUnits="userSpaceOnUse"
       gradientTransform="matrix(-1.0792904,-0.10658812,0,1.0845408,45.200117,31.374842)"
       x1="-220.91794"
       y1="-40.74456"
       x2="-199.07576"
       y2="-1.9921155" />
    <linearGradient
       inkscape:collect="always"
       xlink:href="#linearGradient4145"
       id="linearGradient3043"
       gradientUnits="userSpaceOnUse"
       gradientTransform="matrix(-1.0792904,-0.10658812,0,1.0845408,45.200117,31.374842)"
       x1="-220.91794"
       y1="-40.74456"
       x2="-199.07576"
       y2="-1.9921155" />
  </defs>
  <sodipodi:namedview
     inkscape:window-height="743"
     inkscape:window-width="1280"
     inkscape:pageshadow="2"
     inkscape:pageopacity="0.0"
     guidetolerance="10.0"
     gridtolerance="10.0"
     objecttolerance="10.0"
     borderopacity="1.0"
     bordercolor="#666666"
     pagecolor="#ffffff"
     id="base"
     inkscape:zoom="0.99414062"
     inkscape:cx="168.31997"
     inkscape:cy="55.686905"
     inkscape:window-x="0"
     inkscape:window-y="0"
     inkscape:current-layer="svg2"
     width="128px"
     height="128px"
     showgrid="false">
    <inkscape:grid
       type="xygrid"
       id="grid3710"
       spacingx="4px"
       spacingy="4px"
       empspacing="2" />
  </sodipodi:namedview>
  <path
     style="fill:none;stroke:#6b3f00;stroke-width:1px;stroke-linecap:butt;stroke-linejoin:miter;stroke-opacity:1;filter:url(#filter4054)"
     d="m 142.70271,64.864865 68.87163,7.24948 2.94563,-0.0088 2.43346,-0.42774 5.18294,-1.62376"
     id="path4016"
     sodipodi:nodetypes="ccccc"
     transform="matrix(1.0845408,0,0,1.0845408,-134.79988,31.374843)" />
  <path
     style="fill:url(#linearGradient10398);fill-opacity:1;stroke:none"
     inkscape:transform-center-x="121.59665"
     inkscape:transform-center-y="2.2402366"
     d="M 103.699,13.355381 30.659215,6.1421499 c -0.921859,-0.091036 -1.801172,0.011995 -2.606401,0.27815 l -7.343219,2.1553166 c -0.233253,0.7343632 2.922002,3.6216475 2.922002,4.4658405 l 0,78.919563 c 0,4.206709 3.134323,7.902876 7.027618,8.28737 l 67.715583,9.18917 7.849892,-2.22803 c 2.63826,-0.83126 4.50193,-3.4034 4.50193,-6.64722 l 0,-78.919561 c 0,-4.20671 -3.13431,-7.902876 -7.02762,-8.287368 z"
     id="rect3891"
     sodipodi:nodetypes="cccccccccccc" />
  <path
     style="fill:url(#radialGradient4107);fill-opacity:1;fill-rule:evenodd;stroke:none;filter:url(#filter4012)"
     d="m 218.23424,-16.288288 c 1.91288,-0.135104 3.17051,0.385039 4.32432,1.009009 1.37876,1.370422 2.81792,2.691427 3.17117,4.900901 0.41326,1.2012009 0.25074,2.4024019 0,3.6036029 l -18.63257,-1.709756 11.13708,-7.8037569 z"
     id="path3954"
     sodipodi:nodetypes="cccccc"
     transform="matrix(1.0845408,0,0,1.0845408,-134.79988,31.374843)" />
  <rect
     style="fill:url(#radialGradient10394);fill-opacity:1;stroke:none"
     id="rect9641"
     width="87.5187"
     height="94.106239"
     x="-103.63644"
     y="6.0331545"
     rx="7.0617962"
     ry="7.593338"
     transform="matrix(-0.99515885,-0.09827949,0,1,0,0)"
     inkscape:transform-center-x="121.59665"
     inkscape:transform-center-y="2.2402366" />
  <path
     style="opacity:0.65289258999999999;fill:#000000;fill-opacity:1;stroke:none"
     d="m 23.470473,38.929766 c -1.967958,1.949452 -3.746295,4.061705 -5.33384,6.323858 l 7.784677,10.387412 c 1.494365,-2.358722 3.20041,-4.557206 5.184709,-6.522849 15.956186,-15.806143 41.73386,-11.517755 57.539431,9.572262 1.965561,2.622729 3.65135,5.38548 5.124446,8.237847 l 7.858864,-7.784941 C 100.06183,56.356419 98.303138,53.655766 96.35375,51.054624 76.333365,24.34061 43.681633,18.908668 23.470472,38.929765 z m 15.271091,20.376837 c -2.026373,2.00732 -3.706597,4.319454 -5.036144,6.861095 0.25625,0.273128 0.51128,0.54231 0.74619,0.85575 l 7.45659,9.949632 c 0.926192,-2.852029 2.391429,-5.420094 4.468875,-7.478017 7.446222,-7.376208 19.475803,-5.374956 26.851737,4.467055 2.057825,2.745844 3.500135,5.797627 4.401782,8.953734 l 8.22019,-8.142894 C 84.549932,71.82469 82.924248,68.97782 80.937117,66.326308 69.346364,50.860293 50.44274,47.71548 38.741534,59.30665 z m 15.271091,20.376844 c -3.191242,3.161238 -3.215695,9.150183 -0.05458,13.368182 3.161114,4.21801 8.316654,5.075677 11.507897,1.914441 3.191231,-3.161227 3.215678,-9.150158 0.05456,-13.368169 -3.161112,-4.217999 -8.316645,-5.075682 -11.507877,-1.914454 z"
     id="path9653"
     inkscape:transform-center-y="2.9989956"
     inkscape:transform-center-x="-0.2217695" />
  <g
     id="g11089"
     transform="matrix(1.1005323,0,0,1.1005323,-5.9904031,-8.3173998)"
     style="opacity:0.95594714">
    <path
       d="m 32.318558,24.630011 c 1.137415,0.133749 2.082131,1.182603 2.101004,2.329418 l 0.198528,12.063688 c 0.01924,1.168947 -0.855062,1.982818 -2.032316,1.844385 L 26.511262,40.1532 c -1.17825,-0.13855 -2.081783,-1.161477 -2.10102,-2.330424 L 24.21173,25.760094 c -0.01889,-1.147821 0.894919,-1.977128 2.032333,-1.843379 l 6.074512,0.714302 -1.7e-5,-0.001 z m 0.23288,14.151093 -0.198528,-12.063688 -6.074512,-0.714302 0.198529,12.063688 6.074511,0.714302 z"
       id="path4181"
       style="fill:#ffffff" />
    <path
       d="m 47.428464,40.530494 -0.06938,-4.216054 c -0.01,-0.605599 0.251732,-1.012583 1.016648,-0.922637 0.764916,0.08995 1.04105,0.560175 1.051016,1.165774 l 0.08655,5.259253 c 0.01237,0.751465 -0.478816,0.98588 -1.016648,0.922637 l -8.14118,-0.957322 c -0.537832,-0.06324 -1.037654,-0.414191 -1.050021,-1.165657 -0.01237,-0.751465 0.478833,-0.984874 1.015669,-0.921748 l 3.037754,0.35721 -0.198528,-12.063688 -3.037754,-0.35721 c -0.537832,-0.06324 -1.037654,-0.414191 -1.050021,-1.165656 -0.01237,-0.751466 0.478833,-0.984875 1.015669,-0.921748 l 5.104422,0.600229 0.232864,14.150087 2.002925,0.235524 1.7e-5,10e-4 z"
       id="path4188"
       style="fill:#ffffff" />
    <path
       d="m 62.073606,28.128908 c 1.13841,0.133866 2.083127,1.182721 2.101999,2.329536 l 0.198529,12.063688 c 0.01924,1.168946 -0.855063,1.982818 -2.033313,1.844267 l -6.074512,-0.714302 c -1.17825,-0.13855 -2.081783,-1.161477 -2.10102,-2.330424 L 53.966777,29.258991 c -0.01889,-1.147821 0.895915,-1.97701 2.032334,-1.843379 l 6.074511,0.714302 -1.6e-5,-10e-4 z m 0.23288,14.151093 -0.198529,-12.063688 -6.074511,-0.714302 0.198528,12.063688 6.074512,0.714302 z"
       id="path4195"
       style="fill:#ffffff" />
    <path
       d="m 76.950631,29.878299 c 1.138411,0.133865 2.083127,1.18272 2.102,2.329535 l 0.198528,12.063688 c 0.01924,1.168946 -0.855062,1.982818 -2.033312,1.844267 l -6.074512,-0.714302 c -1.17825,-0.13855 -2.081783,-1.161477 -2.10102,-2.330424 L 68.843803,31.008381 c -0.01889,-1.147821 0.895915,-1.97701 2.032333,-1.843379 l 6.074512,0.714303 -1.7e-5,-10e-4 z m 0.23288,14.151092 -0.198528,-12.063688 -6.074511,-0.714302 0.198528,12.063688 6.074511,0.714302 z"
       id="path4202"
       style="fill:#ffffff" />
    <path
       d="m 92.062529,45.779015 -0.06938,-4.216053 c -0.01,-0.605599 0.252728,-1.012467 1.016648,-0.922637 0.76392,0.08983 1.040054,0.560057 1.05002,1.165656 l 0.08655,5.259253 c 0.01237,0.751466 -0.478816,0.985881 -1.015652,0.922754 l -8.142176,-0.957439 c -0.537832,-0.06324 -1.037654,-0.414191 -1.05002,-1.165656 -0.01237,-0.751466 0.477836,-0.984992 1.015668,-0.921748 l 3.037754,0.35721 -0.198528,-12.063689 -3.037754,-0.357209 c -0.537832,-0.06324 -1.037654,-0.414191 -1.05002,-1.165657 -0.01237,-0.751465 0.477836,-0.984991 1.015668,-0.921748 l 5.103427,0.600113 0.232863,14.150086 2.004918,0.235758 1.6e-5,0.001 z"
       id="path4209"
       style="fill:#ffffff" />
    <path
       d="m 32.963593,63.825932 -0.06937,-4.215048 c -0.01,-0.606605 0.251732,-1.012583 1.016649,-0.922637 0.764916,0.08995 1.04105,0.560175 1.051016,1.165774 l 0.08655,5.259253 c 0.01237,0.751466 -0.478833,0.984874 -1.016665,0.921631 l -8.14118,-0.957322 c -0.537832,-0.06324 -1.037637,-0.413185 -1.050004,-1.16465 -0.01237,-0.751466 0.478833,-0.984875 1.015669,-0.921748 L 28.894016,63.348394 28.695471,51.2837 25.657717,50.926491 c -0.537832,-0.06324 -1.037637,-0.413185 -1.05002,-1.165657 -0.01235,-0.750459 0.478832,-0.984874 1.015668,-0.921748 l 5.104423,0.600229 0.23288,14.151093 2.002925,0.235524 0,0 z"
       id="path4216"
       style="fill:#ffffff" />
    <path
       d="m 47.607739,51.42423 c 1.137414,0.133748 2.082147,1.183609 2.10102,2.330424 l 0.198528,12.063688 c 0.01922,1.16794 -0.855079,1.981812 -2.032333,1.843378 L 41.800442,66.947418 C 40.622192,66.808868 39.718659,65.785941 39.699439,64.618 L 39.50091,52.554312 c -0.01889,-1.147821 0.894902,-1.978133 2.032317,-1.844384 l 6.074512,0.714302 z m 0.23288,14.151092 -0.198528,-12.063688 -6.074512,-0.714302 0.198528,12.063688 6.074512,0.714302 0,0 z"
       id="path4223"
       style="fill:#ffffff" />
    <path
       d="m 62.48576,53.173737 c 1.138411,0.133866 2.083144,1.183726 2.102017,2.330541 l 0.198528,12.063688 c 0.01922,1.167941 -0.855079,1.981812 -2.033329,1.843262 L 56.678464,68.696926 C 55.500214,68.558375 54.596681,67.535448 54.57746,66.367508 L 54.378932,54.303819 c -0.01889,-1.14782 0.895898,-1.978016 2.032317,-1.844384 l 6.074511,0.714302 z m 0.232881,14.151092 -0.198529,-12.063688 -6.074511,-0.714302 0.198528,12.063688 6.074512,0.714302 0,0 z"
       id="path4230"
       style="fill:#ffffff" />
    <path
       d="m 77.595666,69.074219 -0.06936,-4.215047 c -0.01,-0.606605 0.252727,-1.012467 1.016648,-0.922637 0.76392,0.08983 1.04105,0.560175 1.051016,1.165773 l 0.08655,5.259253 c 0.01237,0.751466 -0.478833,0.984875 -1.016665,0.921631 L 70.52267,70.32587 c -0.536836,-0.06313 -1.037637,-0.413184 -1.050004,-1.16465 -0.01237,-0.751466 0.478833,-0.984875 1.015669,-0.921748 l 3.037754,0.35721 -0.198545,-12.064695 -3.037754,-0.357209 c -0.536836,-0.06313 -1.037637,-0.413185 -1.05002,-1.165657 -0.01235,-0.750459 0.478832,-0.984874 1.015668,-0.921747 l 5.104423,0.600229 0.23288,14.151092 2.002925,0.235524 0,0 z"
       id="path4237"
       style="fill:#ffffff" />
    <path
       d="m 92.474684,70.823844 -0.06937,-4.215048 c -0.01,-0.606605 0.252728,-1.012466 1.016648,-0.922637 0.763921,0.08983 1.040038,0.559052 1.050021,1.165657 l 0.08655,5.259252 c 0.01237,0.751466 -0.478833,0.984875 -1.015669,0.921748 l -8.142176,-0.957438 c -0.537832,-0.06324 -1.037637,-0.413185 -1.050004,-1.164651 -0.01237,-0.751465 0.477837,-0.984991 1.015669,-0.921748 l 3.037753,0.35721 -0.198544,-12.064694 -3.037754,-0.35721 c -0.537832,-0.06324 -1.037638,-0.413185 -1.050021,-1.165656 -0.01235,-0.75046 0.477837,-0.984992 1.015669,-0.921748 l 5.103426,0.600112 0.23288,14.151092 2.004918,0.235759 0,0 z"
       id="path4244"
       style="fill:#ffffff" />
    <path
       style="fill:#ffffff"
       id="path10409"
       d="m 33.134266,75.746428 c 1.137415,0.133749 2.082131,1.182603 2.101004,2.329418 l 0.198528,12.063688 c 0.01924,1.168947 -0.855062,1.982818 -2.032316,1.844385 L 27.32697,91.269617 C 26.14872,91.131067 25.245187,90.10814 25.22595,88.939193 L 25.027438,76.876511 c -0.01889,-1.147821 0.894919,-1.977128 2.032333,-1.843379 l 6.074512,0.714302 -1.7e-5,-0.001 z m 0.23288,14.151093 -0.198528,-12.063688 -6.074512,-0.714302 0.198529,12.063688 6.074511,0.714302 z" />
    <path
       style="fill:#ffffff"
       id="path10417"
       d="m 48.244172,91.646911 -0.06938,-4.216054 c -0.01,-0.605599 0.251732,-1.012583 1.016648,-0.922637 0.764916,0.08995 1.04105,0.560175 1.051016,1.165774 l 0.08655,5.259253 c 0.01237,0.751465 -0.478816,0.98588 -1.016648,0.922637 l -8.14118,-0.957322 c -0.537832,-0.06324 -1.037654,-0.414191 -1.050021,-1.165657 -0.01237,-0.751465 0.478833,-0.984874 1.015669,-0.921748 l 3.037754,0.35721 -0.198528,-12.063688 -3.037754,-0.35721 c -0.537832,-0.06324 -1.037654,-0.414191 -1.050021,-1.165656 -0.01237,-0.751466 0.478833,-0.984875 1.015669,-0.921748 l 5.104422,0.600229 0.232864,14.150087 2.002925,0.235524 1.7e-5,0.001 z" />
    <path
       style="fill:#ffffff"
       id="path10425"
       d="m 62.889314,79.245325 c 1.13841,0.133866 2.083127,1.182721 2.101999,2.329536 l 0.198529,12.063688 c 0.01924,1.168946 -0.855063,1.982818 -2.033313,1.844267 l -6.074512,-0.714302 c -1.17825,-0.13855 -2.081783,-1.161477 -2.10102,-2.330424 L 54.782485,80.375408 c -0.01889,-1.147821 0.895915,-1.97701 2.032334,-1.843379 l 6.074511,0.714302 -1.6e-5,-0.001 z m 0.23288,14.151093 -0.198529,-12.063688 -6.074511,-0.714302 0.198528,12.063688 6.074512,0.714302 z" />
    <path
       style="fill:#ffffff"
       id="path10433"
       d="m 77.766339,80.994716 c 1.138411,0.133865 2.083127,1.18272 2.102,2.329535 l 0.198528,12.063688 c 0.01924,1.168946 -0.855062,1.982818 -2.033312,1.844267 l -6.074512,-0.714302 c -1.17825,-0.13855 -2.081783,-1.161477 -2.10102,-2.330424 L 69.659511,82.124798 c -0.01889,-1.147821 0.895915,-1.97701 2.032333,-1.843379 l 6.074512,0.714303 -1.7e-5,-0.001 z m 0.23288,14.151092 -0.198528,-12.063688 -6.074511,-0.714302 0.198528,12.063688 6.074511,0.714302 z" />
    <path
       style="fill:#ffffff"
       id="path10441"
       d="m 92.878237,96.895432 -0.06938,-4.216053 c -0.01,-0.605599 0.252728,-1.012467 1.016648,-0.922637 0.76392,0.08983 1.040054,0.560057 1.05002,1.165656 l 0.08655,5.259253 c 0.01237,0.751466 -0.478816,0.985881 -1.015652,0.922754 l -8.142176,-0.957439 c -0.537832,-0.06324 -1.037654,-0.414191 -1.05002,-1.165656 -0.01237,-0.751466 0.477836,-0.984992 1.015668,-0.921748 l 3.037754,0.35721 -0.198528,-12.063689 -3.037754,-0.357209 c -0.537832,-0.06324 -1.037654,-0.414191 -1.05002,-1.165657 -0.01237,-0.751465 0.477836,-0.984991 1.015668,-0.921748 l 5.103427,0.600113 0.232863,14.150086 2.004918,0.235758 1.6e-5,0.001 z" />
  </g>
  <path
     style="fill:url(#linearGradient10390);fill-opacity:1;stroke:none;opacity:1"
     d="m 21.941633,9.3209596 c -2.735201,0.027873 -4.933251,2.2986624 -4.933251,5.5156504 l 0,79.754236 c 0,1.751468 0.645649,3.361333 1.678674,4.556406 L 99.606088,18.228221 C 98.677602,17.36069 97.529257,16.775398 96.283001,16.65232 L 22.489771,9.3552181 c -0.186932,-0.018459 -0.365794,-0.036115 -0.548138,-0.034261 z"
     id="rect3916" />
  <path
     style="fill:url(#linearGradient10387);fill-opacity:1;fill-rule:evenodd;stroke:none"
     d="M 29.051373,6.7759979 100.99455,13.447431 96.207321,14.969666 24.713557,7.7399583 29.051373,6.7759979 z"
     id="path3944"
     sodipodi:nodetypes="ccccc" />
  <path
     sodipodi:nodetypes="ccccc"
     id="path4058"
     d="m 142.70271,64.864865 68.87163,7.24948 2.94563,-0.0088 2.43346,-0.42774 5.18294,-1.62376"
     style="fill:none;stroke:#6b3f00;stroke-width:0.40000001;stroke-linecap:butt;stroke-linejoin:miter;stroke-miterlimit:4;stroke-opacity:1;stroke-dasharray:none;filter:url(#filter4068)"
     transform="matrix(1.0845408,0,0,1.0845408,-134.79988,31.374843)" />
  <path
     style="fill:none;stroke:#6b3f00;stroke-width:2.20000005;stroke-linecap:butt;stroke-linejoin:miter;stroke-miterlimit:4;stroke-opacity:1;stroke-dasharray:none;filter:url(#filter4082)"
     d="m 142.70271,64.864865 68.87163,7.24948 2.94563,-0.0088 2.43346,-0.42774 5.18294,-1.62376"
     id="path4072"
     sodipodi:nodetypes="ccccc"
     transform="matrix(1.0845408,0,0,1.0845408,-134.79988,31.374843)" />
  <rect
     inkscape:transform-center-y="2.2402366"
     inkscape:transform-center-x="121.59665"
     transform="matrix(-0.99515885,-0.09827949,0,1,0,0)"
     ry="7.593338"
     rx="7.0617962"
     y="6.4811172"
     x="-103.22676"
     height="93.658272"
     width="87.109016"
     id="rect4135"
     style="fill:none;stroke:url(#linearGradient10382);stroke-width:1.00242937;stroke-linecap:round;stroke-linejoin:round;stroke-miterlimit:4;stroke-opacity:1;stroke-dasharray:none" />
  <image
     y="836.36182"
     x="878.43146"
     id="image2261"
     height="320"
     width="450"
     sodipodi:absref="/home/pinheiro/Desktop/58931,1166038365,2.jpg"
     xlink:href="/home/pinheiro/Desktop/58931,1166038365,2.jpg" />
  <path
     sodipodi:type="arc"
     style="opacity:1;fill:url(#radialGradient4331);fill-opacity:1;stroke:none;stroke-width:1;stroke-linecap:round;stroke-linejoin:round;stroke-miterlimit:4;stroke-dasharray:none;stroke-dashoffset:1.08779998;stroke-opacity:1;filter:url(#filter4339)"
     id="path4323"
     sodipodi:cx="101.26279"
     sodipodi:cy="20.264956"
     sodipodi:rx="2.0894687"
     sodipodi:ry="4.1789374"
     d="M 103.35226,20.264956 A 2.0894687,4.1789374 0 1 1 99.173318,20.264956 A 2.0894687,4.1789374 0 1 1 103.35226,20.264956 z"
     transform="matrix(0.6454765,-0.5545034,0.5545034,0.6454765,24.215366,61.70415)" />
</svg>
