/* XPM */
static char *configure_ndiswrapper___[] = {
/* columns rows colors chars-per-pixel */
"16 16 147 2",
"   c #6B0D0D",
".  c #7D2F2F",
"X  c #733131",
"o  c #7A4444",
"O  c #7F5556",
"+  c #820E0E",
"@  c #811F1F",
"#  c #A70202",
"$  c #B70102",
"%  c #BA0202",
"&  c #BE0202",
"*  c #923F11",
"=  c #9E3A15",
"-  c #A72205",
";  c #B4280F",
":  c #AE2F13",
">  c #BB2C13",
",  c #A83415",
"<  c #AA1F20",
"1  c #802D2D",
"2  c #C10301",
"3  c #C50301",
"4  c #C80401",
"5  c #CB0501",
"6  c #CF0501",
"7  c #D20601",
"8  c #D50701",
"9  c #DB0707",
"0  c #DD1A01",
"q  c #F20E0E",
"w  c #F21112",
"e  c #F41817",
"r  c #F71E1F",
"t  c #C72B15",
"y  c #F5201F",
"u  c #CA3521",
"i  c #E42D2D",
"p  c #F22121",
"a  c #F42221",
"s  c #F32828",
"d  c #E9312B",
"f  c #ED342E",
"g  c #EE3734",
"h  c #E33F37",
"j  c #F33737",
"k  c #F83636",
"l  c #F03D3D",
"z  c #F03F3C",
"x  c #F43C3D",
"c  c #86400C",
"v  c #F6502A",
"b  c #9B494A",
"n  c #994C4C",
"m  c #B74444",
"M  c #AA5E5E",
"N  c #946E6E",
"B  c #9E7575",
"V  c #A77A7A",
"C  c #AA7F7F",
"Z  c #B97777",
"A  c #C94949",
"S  c #D74142",
"D  c #D65E5E",
"F  c #F54647",
"G  c #F84041",
"H  c #F84343",
"J  c #F34845",
"K  c #F34F4F",
"L  c #F64C4C",
"P  c #F54C4E",
"I  c #F94849",
"U  c #F94A4A",
"Y  c #F84D4E",
"T  c #F84E4E",
"R  c #F94F4F",
"E  c #E65B5B",
"W  c #F55653",
"Q  c #F95151",
"!  c #F95758",
"~  c #F55959",
"^  c #F35C5C",
"/  c #F95C5C",
"(  c #C16565",
")  c #C16B6B",
"_  c #DE696A",
"`  c #D96E6F",
"'  c #D97576",
"]  c #DD7778",
"[  c #D57A7A",
"{  c #E56566",
"}  c #F36566",
"|  c #F96061",
" . c #F86563",
".. c #FA6666",
"X. c #F96768",
"o. c #FA696A",
"O. c #F96C6C",
"+. c #F96D6D",
"@. c #FA6D6E",
"#. c #E67171",
"$. c #EE7575",
"%. c #FA7171",
"&. c #F87473",
"*. c #FA7777",
"=. c #F77A7A",
"-. c #FA7979",
";. c #FA7A7A",
":. c #FA7B7B",
">. c #FA7D7D",
",. c #AD8282",
"<. c #AC8A8A",
"1. c #B38787",
"2. c #B48E8E",
"3. c #B69090",
"4. c #BA9898",
"5. c #D68787",
"6. c #DD8686",
"7. c #D58989",
"8. c #DF8D8D",
"9. c #D99696",
"0. c #D99F9F",
"q. c #ED8686",
"w. c #F28282",
"e. c #F08686",
"r. c #F18787",
"t. c #FA8181",
"y. c #FB8383",
"u. c #FA8484",
"i. c #FB8787",
"p. c #FB8C8C",
"a. c #EC9B9B",
"s. c #FA9393",
"d. c #FB9999",
"f. c #FC9999",
"g. c #FC9A9A",
"h. c #FB9D9E",
"j. c #D2BBBB",
"k. c #E1A1A1",
"l. c #F7A2A2",
"z. c #FBA1A2",
"x. c #FCABAB",
"c. c #FCAEAE",
"v. c #E5B1B1",
"b. c #FCB2B2",
"n. c #FDBEBE",
"m. c #FDC7C7",
"M. c None",
/* pixels */
"M.M.M.M.M.M.M.M.M.M.M.M.M.M.M.M.",
"M.M.O.u.&. .W J z g f d M.M.M.M.",
"M.M.x.n.g.g.>.y./ Q H k v 0 M.M.",
"M.M.c.b.r.k.9.7.q.u.Q R e 8 M.M.",
"M.M.s.v.1.j.2.4.C M i U y 7 M.M.",
"M.M.5.3.Z #.} ^ A n   E a 6 M.M.",
"M.M.$.0.d.l.6.8.z K + . 9 4 M.M.",
"M.M.:.m.a.,.<.o X D a b # 4 M.M.",
"M.M.O.-.Z V m ` 1 B S w.x 3 M.M.",
"M.M.t.h.&._ K _ F @ < r q 2 M.M.",
"M.M.p.y.W -.( n ' r.! X.w & M.M.",
"M.M. .-.I z.] N [ X.X.| s % M.M.",
"M.M.t > u v P W Y %.G O.j % M.M.",
"M.M.M.M.M.M.. c , , , ; - M.M.M.",
"M.M.M.M.M.M.M.M.M.M.M.M.M.M.M.M.",
"M.M.M.M.M.M.M.M.M.M.M.M.M.M.M.M."
};
