/* XPM */
static char *configure-ndiswrapper[] = {
/* columns rows colors chars-per-pixel */
"32 32 194 2",
"   c #000000",
".  c #00050C",
"X  c #05080E",
"o  c #090909",
"O  c #131313",
"+  c #1D1D1D",
"@  c #001636",
"#  c #001638",
"$  c #00193F",
"%  c #081E3F",
"&  c #131A23",
"*  c #00222B",
"=  c #00263D",
"-  c #1B2636",
";  c #232323",
":  c #292929",
">  c #2D333B",
",  c #333333",
"<  c #3B3B3B",
"1  c #001A42",
"2  c #001F4D",
"3  c #002946",
"4  c #002A4A",
"5  c #002255",
"6  c #00245B",
"7  c #002D53",
"8  c #0C2A54",
"9  c #0F2F5E",
"0  c #132E56",
"q  c #16335E",
"w  c #1C3254",
"e  c #1A355D",
"r  c #002761",
"t  c #002864",
"y  c #012A68",
"u  c #0A2D61",
"i  c #002E75",
"p  c #003162",
"a  c #00346F",
"s  c #0D3269",
"d  c #053275",
"f  c #01327B",
"g  c #093371",
"h  c #143363",
"j  c #1A3660",
"k  c #1E3962",
"l  c #183868",
"z  c #163A70",
"x  c #283343",
"c  c #223A5E",
"v  c #283B58",
"b  c #343E4E",
"n  c #213C65",
"m  c #253F68",
"M  c #174273",
"N  c #264169",
"B  c #2A456D",
"V  c #2F4972",
"C  c #354863",
"Z  c #344B6C",
"A  c #344F77",
"S  c #394F71",
"D  c #355078",
"F  c #3B567F",
"G  c #434343",
"H  c #4A4A4A",
"J  c #414D5E",
"K  c #535353",
"L  c #56595D",
"P  c #5D5D5D",
"I  c #485660",
"U  c #445878",
"Y  c #555F6D",
"T  c #636363",
"R  c #60666F",
"E  c DimGray",
"W  c #727272",
"Q  c #7D7D7D",
"!  c #003380",
"~  c #003D8E",
"^  c #0F458A",
"/  c #00419F",
"(  c #0044AA",
")  c #0548AC",
"_  c #0B4CAE",
"`  c #1654B1",
"'  c #285383",
"]  c #3D5880",
"[  c #2F66BA",
"{  c #3369BB",
"}  c #3B6FBE",
"|  c #445F87",
" . c #466687",
".. c #456088",
"X. c #4A658D",
"o. c #486989",
"O. c #4E6A91",
"+. c #526C95",
"@. c #546F98",
"#. c #5A738A",
"$. c #567199",
"%. c #5A749C",
"&. c #5D77A0",
"*. c #5E79A1",
"=. c #6B7686",
"-. c #677D9D",
";. c #6D7C92",
":. c #727F92",
">. c #617CA4",
",. c #4375C0",
"<. c #4B7BC3",
"1. c #7F8D97",
"2. c #6C82A2",
"3. c #6A85AD",
"4. c #6D87B0",
"5. c #6D89B1",
"6. c #7186A6",
"7. c #7688A3",
"8. c #728EAC",
"9. c #7C8DA6",
"0. c #708BB3",
"q. c #5582C6",
"w. c #5A86C8",
"e. c #5E89C9",
"r. c #6089C3",
"t. c #658ECB",
"y. c #6A92CD",
"u. c #7A9DD2",
"i. c #848484",
"p. c gray55",
"a. c #858D99",
"s. c gray58",
"d. c #97999D",
"f. c #9D9D9D",
"g. c #8696AF",
"h. c #8895A9",
"j. c #8E9BAE",
"k. c #8196B6",
"l. c #8C9AB0",
"z. c #969BA4",
"x. c #909BAB",
"c. c #989FA9",
"v. c #929FB1",
"b. c #95A6BE",
"n. c #9EA6B2",
"m. c #A7A7A7",
"M. c gray67",
"N. c #A2ABB4",
"B. c #A3ADBC",
"V. c #ABAFB4",
"C. c #ADB0B4",
"Z. c #AAB0B9",
"A. c #B6B6B6",
"S. c #BCBCBC",
"D. c #80A2D5",
"F. c #8CABD9",
"G. c #9EADC5",
"H. c #94B1DB",
"J. c #9CB6DE",
"K. c #A5B5CC",
"L. c #ABB5C4",
"P. c #A8B8CF",
"I. c #A0B9DF",
"U. c #ACBED5",
"Y. c #B4BBC4",
"T. c #B2BECF",
"R. c #B8BEC0",
"E. c #BCC5CD",
"W. c #BDC5D1",
"Q. c #B1C6E5",
"!. c #B6C9E7",
"~. c #B8CBE7",
"^. c #C2C2C2",
"/. c #C3C6C8",
"(. c #C7C9CC",
"). c #CCCCCC",
"_. c #C9D2D9",
"`. c #D1D1D1",
"'. c #D4D5D8",
"]. c #D7D8DB",
"[. c #DCDCDC",
"{. c #C4D1E1",
"}. c #D7DDE1",
"|. c #D7E2F2",
" X c #DCE5F3",
".X c #E3E3E3",
"XX c #EAEAEA",
"oX c #E5ECF6",
"OX c #E9EFF8",
"+X c #F3F5F5",
"@X c #F2F6FA",
"#X c #F7F8F8",
"$X c #FEFEFE",
"%X c None",
/* pixels */
"%X%X%X%X%X, , < G P Q p.d.f.f.f.s.s.i.Q E G < , , > x ! %X%X%X%X",
"%X%X%X  H H H p.^.).).`.`.`.`.).^.S.V.x.7.-.$.| V e g ! ! ! %X%X",
"%X%X  H G K ^.`.`.`.`.`.`.`.^.V.h.-.@.@.$.$.$.>.X.e g ! ! ! %X%X",
"%X  , : G ^.`.).`.`.`.`.`.S.h.@.%.%.@.%.$.$.%.>.X.e g ! ! ! %X%X",
"%X; ; < m.).`.).`.`.).).j.%.$.@.@.%.$.$.$.$.%.>.X.e g ! ! ! %X%X",
"  o : G S.).`.).).).Y.>.@.@.+.O.+.+.@.$.%.>.>.>.X.e d ! ! %X%X%X",
"  o , K ).).).(.(.B.>.O.B m n n n n m S :.N.Y./.f.< > f ! %X%X%X",
"    , W ^.(./.^.g.-.@.B h g d i g q > , < < G W i.< , %X%X%X%X%X",
"    , W ^.^.^.l.%.+.O.B 0 8 8 % X         o : , < < , %X%X%X%X%X",
"    , K ^.^.v.%.$.@.@.O.| U L K H < : : + o   , , , , %X%X%X%X%X",
"    , G S.n.%.%.$.$.$.@.9.A.A.A.m.s.Q T H < , , ! %X%X%X%X%X%X%X",
"    , < z.%.%.$.$.$.$.x.A.A.^.^.^.^.^.^.c.;.Z n h d ! ! ! %X%X%X",
"      , Z @.$.$.$.$.h.A.A.S.^.^.^.R.v.-.&.$.&...m j f ! ! %X%X%X",
"      g j ] $.$.&.9.S.A.S.S.S.S.N.-.%.%.&.%.%.*.O.n h ! ! %X%X%X",
"    . f g k D @.2.S.^.^.S.^.S.x.$.%.$.%.%.%.&.>.*.] e d ! %X%X%X",
"%X  @ t ! d h n R z.A.^.^.^.j.%.&.%.%.%.%.$.$.>.*.$.k s ! %X%X%X",
"%X! i 5 6 i f s , < H L E =.X.+.$.&.&.%.%.9.j.Z.^.R.J v f %X%X%X",
"%Xf g e 9 5 5 .     o O & 8 8 j n V &.2.Z.S.E.).).).T , %X%X%X%X",
"%Xf g m N n w ; o       6 y y u d j ;./.^.S.1.#. .#.I , %X%X%X%X",
"1 z l N $.X.Y K H G G b l l h u s v m.(.N.8.r.` ( ( ( O._.$X$X%X",
"# y s n >.3.`./.M.p.T C m m n B S d.).E.$X$X$X} ( ( u.$X$X$X$X$X",
"# i g k >.0.[.[.[.[.].2.3.*.*.>.L.`.R.5.D.~.$X} ( _ @XOX&.~.$X$X",
"1 f g n >.G.[..X.X.XW.4.3.3.3.3.].].o.( ( H.$X} ( <.$XI.( q.$X$X",
"2 i g k >.L.[..X.X.XU.5.5.5.3.k.[.[.' ( ( H.$X} ( e.$Xu.w.,.$X$X",
"5 f g n >.E..X.X.XXXP.0.0.5.5.G.[.).^ ( ( H.$X} ( y.$Xu.@Xu.$X#X",
"5 i g e A a.^.[.XXXXP.0.0.0.5.G..X).^ ( ( H.$X} ( q.$XF.) ,.$X+X",
"5 6 i s h x < < K i.:.O.@.%.*.6.A.m.M ( ( H.$X} ( { $XQ.( t.$X$X",
"i r 5 y r 1 o O + + - 0 0 0 0 0 : : 8 y.J.|.$X!.J.[  X$XJ.@X$X$X",
"! f f ! ! ! %X%X%X%X! ! ! d g g w , = U.$X$X$X$X$X<.{ oX$X#X}.%X",
"%X%X%X%X%X%X%X%X%X%X%X%X%X%X%X%X%X%X%X4 ~ ( ( ( ( ( ( ( ~ 7 %X%X",
"%X%X%X%X%X%X%X%X%X%X%X%X%X%X%X%X%X%X%X%X3 a ( ( ( ( / a 4 %X%X%X",
"%X%X%X%X%X%X%X%X%X%X%X%X%X%X%X%X%X%X%X%X%X* 3 7 p 7 3 * %X%X%X%X"
};
