/* XPM */
static char *configure_ndiswrapper___[] = {
/* columns rows colors chars-per-pixel */
"16 16 150 2",
"   c #6A0D0D",
".  c #722E2F",
"X  c #7E2A2A",
"o  c #7C2F2F",
"O  c #784141",
"+  c #7E5353",
"@  c #810D0D",
"#  c #A60303",
"$  c #B60001",
"%  c #BA0101",
"&  c #BD0201",
"*  c #9E3D18",
"=  c #A72508",
"-  c #B42C13",
";  c #BA2A10",
":  c #AE3316",
">  c #A73819",
",  c #811F20",
"<  c #AA2021",
"1  c #B53D3E",
"2  c #C10201",
"3  c #C40301",
"4  c #C70401",
"5  c #CB0401",
"6  c #CE0501",
"7  c #D20500",
"8  c #D50600",
"9  c #DB0707",
"0  c #F11111",
"q  c #F11717",
"w  c #F41615",
"e  c #C62611",
"r  c #CA311D",
"t  c #F5201F",
"y  c #E32D2D",
"u  c #F12021",
"i  c #F42121",
"p  c #F72222",
"a  c #F02F24",
"s  c #F22E2E",
"d  c #E9312B",
"f  c #ED332E",
"g  c #EE3734",
"h  c #E23B33",
"j  c #EF3939",
"k  c #F83333",
"l  c #F03F3C",
"z  c #F23D3E",
"x  c #F43F3F",
"c  c #86400C",
"v  c #924013",
"b  c #E75001",
"n  c #994B4B",
"m  c #9A4A4A",
"M  c #AA5E5E",
"N  c #926C6D",
"B  c #9D7575",
"V  c #A67777",
"C  c #AA7F7F",
"Z  c #B87474",
"A  c #C94545",
"S  c #D74142",
"D  c #D55C5C",
"F  c #F44243",
"G  c #F54344",
"H  c #F84142",
"J  c #F84242",
"K  c #F34845",
"L  c #F64A4A",
"P  c #F14C4C",
"I  c #F84849",
"U  c #F94A4A",
"Y  c #F84E4E",
"T  c #F94E4E",
"R  c #F84F50",
"E  c #E65B5B",
"W  c #F55553",
"Q  c #F25757",
"!  c #F95050",
"~  c #F85758",
"^  c #F55C5E",
"/  c #F85B5C",
"(  c #F95C5C",
")  c #C15F60",
"_  c #E45F60",
"`  c #F35F60",
"'  c #C06666",
"]  c #DD6364",
"[  c #D96A6B",
"{  c #DC7274",
"}  c #D97576",
"|  c #D57E7F",
" . c #E66B6B",
".. c #F96161",
"X. c #F86563",
"o. c #F96566",
"O. c #F96666",
"+. c #F96B6B",
"@. c #F96C6C",
"#. c #F96D6F",
"$. c #F96E6F",
"%. c #EE7474",
"&. c #F77373",
"*. c #F97070",
"=. c #F97273",
"-. c #F87473",
";. c #FA7374",
":. c #FA7575",
">. c #F97576",
",. c #FA7779",
"<. c #F97A7B",
"1. c #FA7B7B",
"2. c #FA7C7C",
"3. c #AC7F80",
"4. c #AB8787",
"5. c #B28787",
"6. c #B38D8D",
"7. c #B58F8F",
"8. c #B99797",
"9. c #D58686",
"0. c #DC8383",
"q. c #D58888",
"w. c #DE8A8A",
"e. c #D99595",
"r. c #D99C9C",
"t. c #ED8686",
"y. c #F18383",
"u. c #F18787",
"i. c #FB8383",
"p. c #FA8484",
"a. c #FB8686",
"s. c #FA8787",
"d. c #F08888",
"f. c #EB9797",
"g. c #FA9393",
"h. c #FB9595",
"j. c #F79E9E",
"k. c #FB9999",
"l. c #FC9898",
"z. c #FC9999",
"x. c #FB9D9E",
"c. c #D2BBBB",
"v. c #E0A0A0",
"b. c #FCABAB",
"n. c #FCAEAE",
"m. c #E5B1B1",
"M. c #FCB2B2",
"N. c #FDBEBE",
"B. c #FDC4C4",
"V. c None",
/* pixels */
"V.V.V.V.V.V.V.V.V.V.V.V.V.V.V.V.",
"V.V.@.p.=.X.W K l g f d V.V.V.V.",
"V.V.b.N.z.z.2.i.( ! J k a b V.V.",
"V.V.n.M.u.v.e.q.t.p.! T w 8 V.V.",
"V.V.g.m.5.c.6.8.C M y U t 7 V.V.",
"V.V.9.7.Z  .` Q A n   E i 6 V.V.",
"V.V.%.r.h.j.0.w.j P @ o 9 5 V.V.",
"V.V.:.B.f.3.4.O . D u m # 4 V.V.",
"V.V.o.*.' V 1 [ X B S y.x 3 V.V.",
"V.V.<.z.&.] G _ G , < i 0 2 V.V.",
"V.V.s.<.R ;.) + } d.( +.q & V.V.",
"V.V...;.F x.{ N | @.*.o.s % V.V.",
"V.V.e ; r h L ^ ~ ,.U ;.z $ V.V.",
"V.V.V.V.V.V.c v * > : - = V.V.V.",
"V.V.V.V.V.V.V.V.V.V.V.V.V.V.V.V.",
"V.V.V.V.V.V.V.V.V.V.V.V.V.V.V.V."
};
