/* XPM */
static char *configure-ndiswrapper[] = {
/* columns rows colors chars-per-pixel */
"32 32 176 2",
"   c black",
".  c #0E0E0E",
"X  c #131313",
"o  c #1B1B1C",
"O  c #00222B",
"+  c #00263D",
"@  c #142136",
"#  c #12243D",
"$  c #1E2B3F",
"%  c #242424",
"&  c #212429",
"*  c #2B2B2B",
"=  c #262B32",
"-  c #2A2E34",
";  c #28303C",
":  c #333334",
">  c #36393F",
",  c #3C3C3C",
"<  c #002946",
"1  c #01294B",
"2  c #002D54",
"3  c #07285A",
"4  c #0B2855",
"5  c #092A5A",
"6  c #102D47",
"7  c #1D2E46",
"8  c #1A2E4D",
"9  c #132D54",
"0  c #142F58",
"q  c #15315B",
"w  c #1A345A",
"e  c #052B64",
"r  c #082D66",
"t  c #082E68",
"y  c #002E75",
"u  c #003162",
"i  c #00346F",
"p  c #093464",
"a  c #0C316A",
"s  c #053277",
"d  c #01327C",
"f  c #143465",
"g  c #193662",
"h  c #1D3962",
"j  c #222E40",
"k  c #223046",
"l  c #263C5C",
"z  c #2A3F5E",
"x  c #353F4E",
"c  c #213C64",
"v  c #253F68",
"b  c #36454F",
"n  c #364356",
"m  c #3B4554",
"M  c #264169",
"N  c #2A456D",
"B  c #2D4770",
"V  c #2E4971",
"C  c #334661",
"Z  c #3E4D65",
"A  c #324D76",
"S  c #38537C",
"D  c #444444",
"F  c #4C4C4C",
"G  c #434D5B",
"H  c #525252",
"J  c #525559",
"K  c #575858",
"L  c #5A5A5A",
"P  c #5C636E",
"I  c gray47",
"U  c #003380",
"Y  c #003D8E",
"T  c #0B4286",
"R  c #0F458A",
"E  c #00419F",
"W  c #0044AA",
"Q  c #0548AC",
"!  c #0B4CAE",
"~  c #1654B1",
"^  c #285383",
"/  c #3E5881",
"(  c #2F66BA",
")  c #3369BB",
"_  c #3B6FBE",
"`  c #415C84",
"'  c #445F88",
"]  c #4B658C",
"[  c #486989",
"{  c #4E6992",
"}  c #5D6E89",
"|  c #526D95",
" . c #56719A",
".. c #59749C",
"X. c #5D77A0",
"o. c #5E79A2",
"O. c #627CA4",
"+. c #657FA8",
"@. c #4375C0",
"#. c #4B7BC3",
"$. c #7E8999",
"%. c #6681A9",
"&. c #6C81A2",
"*. c #6A85AD",
"=. c #6D87B0",
"-. c #6D88B1",
";. c #7487A3",
":. c #748DAD",
">. c #7D8EA6",
",. c #708AB3",
"<. c #5582C6",
"1. c #5A86C8",
"2. c #5E89C9",
"3. c #6089C3",
"4. c #658ECB",
"5. c #6A92CD",
"6. c #7A9DD2",
"7. c #8E8E8E",
"8. c #9C9C9C",
"9. c #828FA2",
"0. c #8494AD",
"q. c #8895A9",
"w. c #8F9CAE",
"e. c #8195B4",
"r. c #8C9AB1",
"t. c #909BAB",
"y. c #929FB1",
"u. c #95A6BE",
"i. c #9DA6B4",
"p. c #9AA8BD",
"a. c #A5A5A5",
"s. c #A4A7AD",
"d. c gray67",
"f. c #A2ABB4",
"g. c #A3ADBC",
"h. c #A9AEB5",
"j. c #AAB0BA",
"k. c #B5B5B5",
"l. c #BCBCBC",
"z. c #80A2D5",
"x. c #8CABD9",
"c. c #9BABC2",
"v. c #94B1DB",
"b. c #9CB6DE",
"n. c #A3B3CA",
"m. c #A8B4C7",
"M. c #A0B9DF",
"N. c #ACBED5",
"B. c #B3BBC5",
"V. c #B4BECD",
"C. c #B8BEC0",
"Z. c #BCC5CD",
"A. c #BDC5D1",
"S. c #B1C6E5",
"D. c #B6C9E7",
"F. c #B8CBE7",
"G. c #C3C3C3",
"H. c #C7C9CC",
"J. c #CBCBCB",
"K. c #C9D2D9",
"L. c #D2D2D2",
"P. c #D4D5D8",
"I. c #DBDCDC",
"U. c #C4D1E1",
"Y. c #D7DDE1",
"T. c #D7E2F2",
"R. c #DCE5F3",
"E. c #E3E3E3",
"W. c #E9E9E9",
"Q. c #E5ECF6",
"!. c #E9EFF8",
"~. c #F3F5F5",
"^. c #F2F6FA",
"/. c #F7F8F8",
"(. c #FEFEFE",
"). c None",
/* pixels */
").).).).).).* , D F F H F F F H F F F F F D ).U U U U U ).).).).",
").).).% D D F F D F H L L L L L L L K G C c t U U U U U U U ).).",
").).* D F I k.G.J.L.L.L.L.L.H.h.q.+... . .N q U U U U U U U ).).",
").  , L G.J.L.J.L.L.L.L.L.l.9... . . . . .B q U U U U U U U ).).",
").: D k.J.J.J.L.L.L.J.J.r. . . . . . . . .V q U U U U U U U ).).",
"  : 7.J.J.J.L.J.J.J.B.+. . . . . . .....X.A 0 d U U U U U ).).).",
"% , d.J.J.J.J.H.H.f.O. . . . . . . .O.:.p.P = y ).).U U U ).).).",
"* , k.G.H.H.G.G.0.| { { { { { { | 9.a.d.d.H %   ).).).).).).).).",
"* D l.G.G.G.G.>.N q w q 0 0 w j * * * * * % X   ).).).).).).).).",
"% D l.G.G.G.t.| c h g g f l > , * o X X X .   ).).).).).).).).).",
"o D k.G.G.i.....` N N N Z K K K K H F D *   ).).U ).).).).).).).",
"o , k.k.h..... . . .| w.k.k.G.l.l.k.a.L m h U U U U U U U ).).).",
"X : 8.k.O. . . . . .q.k.k.l.G.G.G.l.t.O./ c d U U U U U U ).).).",
"  o L t. . . .....9.l.l.l.l.l.l.f.O.......M f d U U U U U ).).).",
"  o : ]  .......&.C.G.l.l.l.l.t..... .....' c d U U U U U ).).).",
").  # w S X...X.j.G.G.G.G.G.y........... .| c t U U U U U ).).).",
").U y 5 0 v A } 8.8.8.8.t.$.]  .O...O... .;.n $ d U d d U ).).).",
").U U d e 4 4 & % % * * * 0 0 v  .....&.h.l.F *   ).).).).).).).",
").s s s s s r X X X X X 3 e t c  .o.y.G.G.l.b 6 u 2 < O ).).).).",
"- c v M v M G H H H H G v N M A o.e.J.J.f.:.3.~ W W W  .K.(.(.).",
"; N ......O.G.G.J.J.J.0.o.o.o.+.*.J.L.Z.(.(.(._ W W 6.(.(.(.(.(.",
"j S O.+.+.e.I.I.I.I.P.*.*.*.*.*.B.P.C.-.z.F.(._ W ! ^.!.@.U.(.(.",
"7 S +.+.+.u.I.I.E.E.H.*.*.*.*.*.P.P.] W W v.(._ W #.(.M.W <.(.(.",
"8 S %.+.+.m.E.E.E.W.N.-.,.*.-.e.Y.I.^ W W v.(._ W 2.(.6.1.#.(.(.",
"9 S +.+.*.Z.E.E.W.W.n.,.,.,.-.c.I.J.R W W v.(._ W 5.(.6.^.6.(./.",
"9 B o.%.+.Z.I.Y.E.E.n.-.-.*.*.p.I.l.T W W v.(._ W <.(.x.Q @.(.~.",
"4 9 g h h x D D D D n c c c c z D b p W W v.(._ W ) (.S.W 4.(.(.",
"y 5 4 5 5 # o o o o @ 5 5 5 5 5 o o 1 4.M.T.(.D.M.( R.(.b.^.(.(.",
"U d d U U U ).).).).U U U U U U s ).+ N.(.(.(.(.(.#.) Q.(./.Y.).",
").).).).).).).).).).).).).).).).).).).1 Y W W W W W W W Y 2 ).).",
").).).).).).).).).).).).).).).).).).).).1 i W W W W Y s 1 ).).).",
").).).).).).).).).).).).).).).).).).).).).O < 2 u 2 < O ).).).)."
};
