/* XPM */
static char *configure-ndiswrapper-16[] = {
/* columns rows colors chars-per-pixel */
"16 16 181 2",
"   c gray5",
".  c gray7",
"X  c gray9",
"o  c #1D2530",
"O  c #272727",
"+  c #2C2C2C",
"@  c #2D2D2D",
"#  c #2F2F2F",
"$  c gray19",
"%  c #313131",
"&  c #303133",
"*  c gray20",
"=  c gray22",
"-  c #3F3F3F",
";  c #002C52",
":  c #0D2C5A",
">  c #1B2F4E",
",  c #13305B",
"<  c #16325B",
"1  c #15325F",
"2  c #16325D",
"3  c #1C3151",
"4  c #18345F",
"5  c #18355F",
"6  c #042D6D",
"7  c #0B2F65",
"8  c #00346D",
"9  c #0B3066",
"0  c #0F3369",
"q  c #00387C",
"w  c #043B7E",
"e  c #083374",
"r  c #163565",
"t  c #1B3A68",
"y  c #1C3A68",
"u  c #24344D",
"i  c #2D3A4D",
"p  c #373E49",
"a  c #3A3F46",
"s  c #383E48",
"d  c #203B64",
"f  c #203B65",
"g  c #233F69",
"h  c #354051",
"j  c #36465E",
"k  c #3A465A",
"l  c #274066",
"z  c #304462",
"x  c #354966",
"c  c #3A557D",
"v  c gray25",
"b  c #414141",
"n  c #434343",
"m  c #424447",
"M  c gray27",
"N  c gray28",
"B  c #484848",
"V  c gray29",
"C  c #5A616B",
"Z  c #646464",
"A  c gray40",
"S  c DimGray",
"D  c #003380",
"F  c #003A86",
"G  c #003B8A",
"H  c #084599",
"J  c #1F4F8D",
"K  c #0044AA",
"L  c #1755B2",
"P  c #245698",
"I  c #305483",
"U  c #3E5981",
"Y  c #2761B7",
"T  c #2D65B9",
"R  c #346ABB",
"E  c #3B6FBE",
"W  c #4A658E",
"Q  c #4E6992",
"!  c #4F6A92",
"~  c #536E97",
"^  c #566E91",
"/  c #546F98",
"(  c #557098",
")  c #56719A",
"_  c #57729A",
"`  c #597299",
"'  c #59739A",
"]  c #58739C",
"[  c #59749C",
"{  c #5B759C",
"}  c #5B759D",
"|  c #5B769F",
" . c #5C759B",
".. c #5478A1",
"X. c #5E79A2",
"o. c #61799C",
"O. c #667C9E",
"+. c #6079A0",
"@. c #617CA4",
"#. c #647EA7",
"$. c #667FA4",
"%. c #657FA8",
"&. c #4A7AC3",
"*. c #7F8896",
"=. c #6E82A1",
"-. c #6E84A4",
";. c #6B86AF",
":. c #6F89AF",
">. c #6D88B1",
",. c #7487A4",
"<. c #768DB0",
"1. c #5280C5",
"2. c #6A92CD",
"3. c #7C9FD3",
"4. c #8C929B",
"5. c #959595",
"6. c #97989A",
"7. c #8A99AF",
"8. c #8C99AD",
"9. c #8398B9",
"0. c #8A9FBE",
"q. c #8E9FBA",
"w. c #909CAF",
"e. c #919DAF",
"r. c #939EB0",
"t. c #97A2B3",
"y. c #96A4B3",
"u. c #99A3B1",
"i. c #9BAABC",
"p. c gray64",
"a. c #A4A4A4",
"s. c #A5A5A5",
"d. c #A5AAB1",
"f. c #ABB0B8",
"g. c #ADB2BA",
"h. c gray70",
"j. c #B9B9B9",
"k. c gray",
"l. c #819FC5",
"z. c #81A2D2",
"x. c #80A2D5",
"c. c #83A4D6",
"v. c #9DADC5",
"b. c #9DB7DE",
"n. c #AEB7C5",
"m. c #ACBAC7",
"M. c #AFB8C5",
"N. c #B1BDC4",
"B. c #B9BDC3",
"V. c #BFC3C7",
"C. c #BCCEE9",
"Z. c #BFD0EA",
"A. c #C0C0C0",
"S. c #C1C1C1",
"D. c gray76",
"F. c gray78",
"G. c #C5C8CC",
"H. c #C8C8C8",
"J. c gray79",
"K. c gray80",
"L. c #CECECE",
"P. c gray81",
"I. c #C5D1DE",
"U. c #D1D2D3",
"Y. c #D2D2D2",
"T. c LightGray",
"R. c #D8D9D9",
"E. c #DDDDDD",
"W. c #DFDFDF",
"Q. c #C7D4E5",
"!. c #C2D2EB",
"~. c #C8D7ED",
"^. c #CDDAED",
"/. c #DEE5EC",
"(. c #DBE5F3",
"). c #E1E1E1",
"_. c gray90",
"`. c #E1E8F0",
"'. c #F6F7F8",
"]. c gray100",
"[. c None",
/* pixels */
"[.* n - n M V V V V a 0 q D D [.",
"[.n p.F.P.Y.K.u.=. .W 9 D D D [.",
"# s.K.K.K.V.,.) ) ) ! 7 D D D [.",
"* k.F.K.t.` ~ ~ o.7.*.o D D D [.",
"= k.k.r.f r 4 u & + O . [.[.[.[.",
"# h.g.' ^ ^ 4.s.5.S p D D D D [.",
"X 6.O.) ) d.j.k.g.-.U e D D D [.",
"  j / ' r.k.k.e.] ] / r D D D [.",
"D 6 r z Z A C c | +.8.s D D D [.",
"i t t p M m d g $.B.t.I G w m.[.",
"k X.@.G.T.n.%.%.M.i.^.b.K Z.Q.'.",
"x %.<.E.).v.;.:.R.P &.b.L ~.E /.",
"g $.q.W._.0.>.9.Y.H &.b.Y !.2.`.",
": , > # # 3 2 < * J c.C.R (.3.I.",
"D D D [.[.D D D D ..z.x.1.T l.N.",
"[.[.[.[.[.[.[.[.[.[.8 F G q ; [."
};
