/* XPM */
static char *configure_ndiswrapper[] = {
/* columns rows colors chars-per-pixel */
"32 32 209 2",
"   c #550101",
".  c #5E0404",
"X  c #550F0F",
"o  c #551213",
"O  c #6A0000",
"+  c #730000",
"@  c #601111",
"#  c #721111",
"$  c #723700",
"%  c #743E03",
"&  c #7E3C06",
"*  c #622324",
"=  c #662828",
"-  c #732020",
";  c #763232",
":  c #6D4041",
">  c #714444",
",  c #7F4B4C",
"<  c #8C0304",
"1  c #980000",
"2  c #911F1F",
"3  c #B30102",
"4  c #BB0101",
"5  c #B40E0E",
"6  c #A21001",
"7  c #8B3205",
"8  c #853807",
"9  c #803F08",
"0  c #933305",
"q  c #9C3209",
"w  c #A3320D",
"e  c #AF3414",
"r  c #A93F1D",
"t  c #BB361C",
"y  c #801F20",
"u  c #802626",
"i  c #8B2A2B",
"p  c #833939",
"a  c #B33D21",
"s  c #C40301",
"d  c #CC0401",
"f  c #D30500",
"g  c #DE0B03",
"h  c #D00908",
"j  c #C21008",
"k  c #DA1700",
"l  c #D20F10",
"z  c #DB1011",
"x  c #EB0302",
"c  c #EB0D0D",
"v  c #F60303",
"b  c #E5100F",
"n  c #EB1211",
"m  c #ED1C19",
"M  c #F61414",
"N  c #F61B1B",
"B  c #F0201F",
"V  c #CA2122",
"C  c #C23D27",
"Z  c #CE3B29",
"A  c #D7382B",
"S  c #CD3E3F",
"D  c #DC3F34",
"F  c #D73939",
"G  c #EE2421",
"H  c #EA2B25",
"J  c #EE2C29",
"K  c #F52424",
"L  c #F52C2C",
"P  c #F82C2C",
"I  c #E13228",
"U  c #EA322A",
"Y  c #F52E30",
"T  c #E83530",
"R  c #EE3B35",
"E  c #EC3E3A",
"W  c #F63434",
"Q  c #F83536",
"!  c #F73738",
"~  c #F43C3C",
"^  c #F83B3B",
"/  c #85400C",
"(  c #89400F",
")  c #904114",
"_  c #984117",
"`  c #9F401A",
"'  c #E95B01",
"]  c #EC6502",
"[  c #E6443E",
"{  c #EE423E",
"}  c #F1403F",
"|  c #F65E38",
" . c #ED6022",
".. c #F63F40",
"X. c #824344",
"o. c #824D4D",
"O. c #8A4949",
"+. c #954041",
"@. c #934C4C",
"#. c #865454",
"$. c #845B5B",
"%. c #905354",
"&. c #9D5656",
"*. c #915B5B",
"=. c #AD4C4C",
"-. c #A15F5F",
";. c #B05354",
":. c #8D6061",
">. c #946262",
",. c #986565",
"<. c #9E6E6E",
"1. c #977373",
"2. c #9D7676",
"3. c #B36465",
"4. c #BE6E6E",
"5. c #A27373",
"6. c #A47B7B",
"7. c #AB7E7E",
"8. c #B17575",
"9. c #BA7070",
"0. c #B07D7E",
"q. c #BD7B7B",
"w. c #C35657",
"e. c #DE5A5A",
"r. c #ED4A47",
"t. c #EE4D4B",
"y. c #F34442",
"u. c #F84445",
"i. c #F24A46",
"p. c #F84748",
"a. c #F54B4A",
"s. c #F84B4C",
"d. c #F5514E",
"f. c #F84E50",
"g. c #EB5253",
"h. c #ED5E5E",
"j. c #F65554",
"k. c #F95353",
"l. c #F85758",
"z. c #F45A5A",
"x. c #F95B5C",
"c. c #E95F60",
"v. c #D46D6E",
"b. c #DD6D6F",
"n. c #C57878",
"m. c #D37373",
"M. c #D57A7B",
"N. c #E86465",
"B. c #E46A6A",
"V. c #EA6A6B",
"C. c #F96464",
"Z. c #F56E6F",
"A. c #FA6C6D",
"S. c #E47474",
"D. c #EC7373",
"F. c #E57A7A",
"G. c #EB797A",
"H. c #FA7474",
"J. c #F37979",
"K. c #FA7C7C",
"L. c #FA7F80",
"P. c #AE8484",
"I. c #AA8D8E",
"U. c #B58181",
"Y. c #B28C8C",
"T. c #B59292",
"R. c #BA9696",
"E. c #B79A9A",
"W. c #BC9A9A",
"Q. c #BDA2A2",
"!. c #C38080",
"~. c #CE8282",
"^. c #C48D8D",
"/. c #D08787",
"(. c #D48889",
"). c #C79090",
"_. c #FA8384",
"`. c #FA8788",
"'. c #F28888",
"]. c #FB8B8B",
"[. c #E99C9C",
"{. c #F69191",
"}. c #FB9394",
"|. c #FB9799",
" X c #FB9C9C",
".X c #C1A3A4",
"XX c #C9AEAE",
"oX c #D1A9AA",
"OX c #CDB4B4",
"+X c #D2B1B1",
"@X c #DEB1B1",
"#X c #D2BBBB",
"$X c #E2A3A3",
"%X c #E7A9A9",
"&X c #FBA3A4",
"*X c #F5ACAC",
"=X c #FCADAD",
"-X c #FCB4B4",
";X c #F3BCBC",
":X c #FCBCBC",
">X c #D7C3C3",
",X c #D9C3C3",
"<X c #E7C4C4",
"1X c #FDC4C4",
"2X c #FDCCCC",
"3X c #F0D6D6",
"4X c #FED4D4",
"5X c #FEDBDB",
"6X c None",
/* pixels */
"6X6X6X6X6X6X6X6X6X6X6X6X6X6X6X6X6X6X6X6X6X6X6X6X6X6X6X6X6X6X6X6X",
"6X6X6X6X6X6X6Xi.6X6X6X6X6X6X6X6X6X6X6X6X6X6X6X6X6X6X6X6X6X6X6X6X",
"6X6X6X6X6XH.C.x.k.d.d.{ } { R U U H 6X6X6X6X6X6X6X6X6X6X6X6X6X6X",
"6X6X6X6X_.=X&X&X X}.].`.L.A.C.x.j.d.d.a.{ } } U b g 6X6X6X6X6X6X",
"6X6X6X6X_.:X1X=X}.}.].L.K.K.A.A.C.l.k.s.p.} ^ ^ d. .] 6X6X6X6X6X",
"6X6X6X6XL.5X=X5X}.=X5XK.H.].=X].x.k.k.p.} } Q K v | ' k 6X6X6X6X",
"6X6X6X6XK.4X|.2X].`.1XJ.S.:XD.&XA. X=X=Xk.x.}.B v L f g 6X6X6X6X",
"6X6X6X6XK.4X}.2X'.~.,XP.<.OX>.R.9.%Xd.K.A.P l.Q v J f f 6X6X6X6X",
"6X6X6X6XH.1X1X3XP.P.>XXX6.OX*.T.5..X@.v.C.v s.^ v K f f 6X6X6X6X",
"6X6X6X6XH.{.).Y.P.R.OX>X<.R.OX#X,.R.*.,.=.x s.C.p.m d f 6X6X6X6X",
"6X6X6X6XZ.^.P.P.6.5.4.B.N.c.h.h.=.O.Y.P.@ u *X-Xx.N d f 6X6X6X6X",
"6X6X6X6XB.OX#X6.8.S.H.A.C.x.l.j.p.~ 5 .     O b v m d d 6X6X6X6X",
"6X6X6X6XC.~.,Xn.H.-X-X1XH.K.-X|.u.K P l O     O x n d d 6X6X6X6X",
"6X6X6X6XC._.<XK.H.:XZ.[.q.oX&.!.e.!  Xk.z - T.; 1 c d d 6X6X6X6X",
"6X6X6X6XC.K.1X&X_.:X3.T.2.Q.o.o.o.# N.l.N z p *.  h d s 6X6X6X6X",
"6X6X6X6Xx. X5X5X_.+X2.T.2.E.= o.#.X %.B.~ M S >.< x d s 6X6X6X6X",
"6X6X6X6Xx.H.H.H.v.>.E.Q.@.w.$X@XX.* 6.P.G.N u.m.H.x s s 6X6X6X6X",
"6X6X6X6Xx.H.H.H.Z.-.#.;.........~ i :.6.+.Q &X-XL.x s s 6X6X6X6X",
"6X6X6X6Xx._.&X].H.V.@.....u.p.p.u.u.- o o V K N M c s 4 6X6X6X6X",
"6X6X6X6Xl.1X].-XL.`.:Xx.u.g.(.F.s.s.F o 2 P K N M c s s 6X6X6X6X",
"6X6X6X6Xl.:XA.|.L.~ `.C.p.U.$.1.M.H.:X$Xx...].u.N c s 4 6X6X6X6X",
"6X6X6X6Xf.:XC.}.x.! L.A.k.2.> : 0._.H.f.|.Q f._.N b 4 4 6X6X6X6X",
"6X6X6X6Xf. X&X&Xl...`.}.`.7.> : 7.`.K.f.|.W ..`.N n 4 4 6X6X6X6X",
"6X6X6X6Xs.f.Q ..L k.&X-XH.b..XI./.L._.f. XQ ^ ].H.c 4 4 6X6X6X6X",
"6X6X6X6XY N m G J W E y.p.k.z.D.l.k.|.=XC.^ &X:X|.n 4 3 6X6X6X6X",
"6X6X6X6X6X0 q w e t Z D [ r.t.a.t.t.y.} ~ W P Q L b 3 3 6X6X6X6X",
"6X6X6X6X6X6X6X6X6X6X6X9 9 ( ) _ ` r a C A I H G m j 6 6X6X6X6X6X",
"6X6X6X6X6X6X6X6X6X6X6X6X6X6X6X6X6X6X6X6X% & 8 7 7 $ 6X6X6X6X6X6X",
"6X6X6X6X6X6X6X6X6X6X6X6X6X6X6X6X6X6X6X6X6X6X6X6X6X6X6X6X6X6X6X6X",
"6X6X6X6X6X6X6X6X6X6X6X6X6X6X6X6X6X6X6X6X6X6X6X6X6X6X6X6X6X6X6X6X",
"6X6X6X6X6X6X6X6X6X6X6X6X6X6X6X6X6X6X6X6X6X6X6X6X6X6X6X6X6X6X6X6X",
"6X6X6X6X6X6X6X6X6X6X6X6X6X6X6X6X6X6X6X6X6X6X6X6X6X6X6X6X6X6X6X6X"
};
