/* XPM */
static char *configure-ndiswrapper-16[] = {
/* columns rows colors chars-per-pixel */
"16 16 196 2",
"   c black",
".  c #060606",
"X  c #0E0E0E",
"o  c gray8",
"O  c #161616",
"+  c #1E1E1E",
"@  c #24282E",
"#  c gray16",
"$  c #28292B",
"%  c #313131",
"&  c #323232",
"*  c gray20",
"=  c #373737",
"-  c #313438",
";  c #393939",
":  c gray24",
">  c #3E3E3E",
",  c #001D49",
"<  c #021F4A",
"1  c #0E274C",
"2  c #022356",
"3  c #00255C",
"4  c #00265F",
"5  c #002C52",
"6  c #04285F",
"7  c #05295F",
"8  c #002865",
"9  c #0B2F66",
"0  c #00346D",
"q  c #0E3064",
"w  c #0E356F",
"e  c #02337D",
"r  c #043379",
"t  c #04337A",
"y  c #00387C",
"u  c #083373",
"i  c #083374",
"p  c #123263",
"a  c #113367",
"s  c #153666",
"d  c #163667",
"f  c #173767",
"g  c #1D3963",
"h  c #1F3B64",
"j  c #193969",
"k  c #1C3A68",
"l  c #293342",
"z  c #273851",
"x  c #2D3C53",
"c  c #323E50",
"v  c #233C61",
"b  c #223F69",
"n  c #3A424E",
"m  c #35465F",
"M  c #3D4550",
"N  c #224369",
"B  c #29446D",
"V  c #2A456E",
"C  c #314C74",
"Z  c #314D76",
"A  c #344E75",
"S  c #3F526F",
"D  c #36517A",
"F  c #37527B",
"G  c #3E577D",
"H  c #434343",
"J  c gray27",
"K  c #464646",
"L  c #4C4C4C",
"P  c #46505F",
"I  c #505050",
"U  c #5D6675",
"Y  c #646464",
"T  c #656565",
"R  c #676767",
"E  c #003380",
"W  c #003A86",
"Q  c #003B8A",
"!  c #09459A",
"~  c #0044AA",
"^  c #1755B2",
"/  c #24518E",
"(  c #245698",
")  c #33609B",
"_  c #2761B7",
"`  c #2D65B9",
"'  c #346ABB",
"]  c #3B6FBE",
"[  c #415C85",
"{  c #475E80",
"}  c #4C678F",
"|  c #4D6890",
" . c #4D6891",
".. c #4E6992",
"X. c #536E96",
"o. c #577197",
"O. c #557099",
"+. c #567199",
"@. c #56719A",
"#. c #57729A",
"$. c #58739B",
"%. c #58739C",
"&. c #59749B",
"*. c #5A759D",
"=. c #5B759D",
"-. c #5C759C",
";. c #5C779F",
":. c #5478A1",
">. c #5778A6",
",. c #5D77A0",
"<. c #5D78A1",
"1. c #5E79A2",
"2. c #6C7583",
"3. c #637A9D",
"4. c #797D82",
"5. c #6079A0",
"6. c #617CA5",
"7. c #4A7AC3",
"8. c #6F83A1",
"9. c #6E84A5",
"0. c #6C87AF",
"q. c #6F89AF",
"w. c #7487A4",
"e. c #748BAE",
"r. c #7889A4",
"t. c #708AB3",
"y. c #5280C5",
"u. c #6A92CD",
"i. c #7C9FD3",
"p. c #878B91",
"a. c #909090",
"s. c #93979D",
"d. c #8691A3",
"f. c #8D9AAD",
"g. c #859ABB",
"h. c #939CAA",
"j. c #919DAF",
"k. c #95A1B4",
"l. c #96A4B3",
"z. c #99A3B1",
"x. c #9BA4B2",
"c. c #9BA7B8",
"v. c #9BAABC",
"b. c #A2A2A2",
"n. c #ACACAC",
"m. c #A1A7B0",
"M. c #A6ABB2",
"N. c #A8ADB5",
"B. c #ADB2BA",
"V. c gray69",
"C. c #B4B4B4",
"Z. c gray71",
"A. c #B1B5BA",
"S. c #B2B7BF",
"D. c #B9B9B9",
"F. c gray73",
"G. c #BBBBBB",
"H. c gray",
"J. c #819FC5",
"K. c #8CA1C0",
"L. c #81A2D2",
"P. c #80A2D5",
"I. c #83A4D6",
"U. c #9DADC5",
"Y. c #9DB7DE",
"T. c #ACBAC7",
"R. c #B1BDC4",
"E. c #BFC3C7",
"W. c #BCCEE9",
"Q. c #BFD0EA",
"!. c gray76",
"~. c #C5C6C9",
"^. c #C8C8C8",
"/. c #CBCBCB",
"(. c #C9CBCF",
"). c #CECECE",
"_. c gray81",
"`. c #C5D1DE",
"'. c #D0D0D0",
"]. c #D2D2D2",
"[. c #D5D6D7",
"{. c #D8D8D8",
"}. c #D9DADA",
"|. c #DDDDDD",
" X c #C7D4E5",
".X c #C2D2EB",
"XX c #C8D7ED",
"oX c #CDDAED",
"OX c #DEE5EC",
"+X c #DBE5F3",
"@X c #E1E1E1",
"#X c #E7E7E7",
"$X c #E1E8F0",
"%X c #F6F7F8",
"&X c gray100",
"*X c None",
/* pixels */
"*X*XH I a.n.C.F.n.b.p.U x i E *X",
"*X& R /.].]._.z.w.-.+.1.C t E *X",
"o = !._._.E.w.+.+.+.*.1.A t E *X",
". J ^./.c.o.b j g m 2.s.R l E *X",
"  L !.k.+.} B z $ O X & = & *X*X",
"  > N.-.+.3.m.H.C.b.4.c a E E *X",
"  @ G $.&.M.F.H.B.9.-.+.B t E *X",
"  , w D d.F.H.j.*.*.$.,.X.d E *X",
"E 9 6 2 + & M F  .1.f.S.~.n e *X",
"v k [ P > - p 9 g A.l.>.) N T.*X",
", k 6.(.!.h. . .x.v.oXY.~ Q. X%X",
"3 d e.|.@XU.q.q.}.( 7.Y.^ XX] OX",
"8 d r.{.#Xg.t.g.[.! 7.Y._ .Xu.$X",
"4 4 1 # J S G G R / I.Q.' +Xi.`.",
"E E e *X*XE e u E :.L.i.y.` J.R.",
"*X*X*X*X*X*X*X*X*X*X0 W Q y 5 *X"
};
