/* XPM */
static char *configure_ndiswrapper[] = {
/* columns rows colors chars-per-pixel */
"32 32 213 2",
"   c #560101",
".  c #5D0404",
"X  c #571212",
"o  c #600505",
"O  c #6A0000",
"+  c #740000",
"@  c #611111",
"#  c #731212",
"$  c #723700",
"%  c #743C03",
"&  c #7E3C05",
"*  c #642425",
"=  c #682929",
"-  c #742121",
";  c #763232",
":  c #6E4041",
">  c #724546",
",  c #734748",
"<  c #8D0303",
"1  c #990000",
"2  c #911E1F",
"3  c #B50202",
"4  c #BB0102",
"5  c #A31102",
"6  c #B40F10",
"7  c #853706",
"8  c #8C3204",
"9  c #803F09",
"0  c #943406",
"q  c #9D330A",
"w  c #9F3E19",
"e  c #A4340E",
"r  c #AF3415",
"t  c #A93E1B",
"y  c #BB371D",
"u  c #B43A1F",
"i  c #811F20",
"p  c #802626",
"a  c #8C2C2C",
"s  c #843939",
"d  c #C40301",
"f  c #CB0401",
"g  c #C30F06",
"h  c #D40601",
"j  c #D70802",
"k  c #DB0B05",
"l  c #D10908",
"z  c #D31111",
"x  c #DC1212",
"c  c #EB0302",
"v  c #E50C0C",
"b  c #EA0C0C",
"n  c #F60303",
"m  c #EF1414",
"M  c #EC1814",
"N  c #EF1F1B",
"B  c #F71414",
"V  c #F61B1B",
"C  c #E1200D",
"Z  c #EE211D",
"A  c #F0201F",
"S  c #CA2121",
"D  c #C43B24",
"F  c #CE3C29",
"G  c #D73427",
"H  c #CE3E3F",
"J  c #D83939",
"K  c #EA2721",
"L  c #E12E25",
"P  c #EC2A25",
"I  c #EE2F2C",
"U  c #F62425",
"Y  c #F62728",
"T  c #F52C2B",
"R  c #F82C2C",
"E  c #EA332B",
"W  c #F82F30",
"Q  c #E83632",
"!  c #EE3C35",
"~  c #EC3F3A",
"^  c #F63333",
"/  c #F83434",
"(  c #F33D3C",
")  c #F83B3B",
"_  c #85400C",
"`  c #89400F",
"'  c #904113",
"]  c #984016",
"[  c #EC6A05",
"{  c #DC4035",
"}  c #E6453E",
"|  c #EF423E",
" . c #F14639",
".. c #F13F40",
"X. c #F83F40",
"o. c #834444",
"O. c #814D4D",
"+. c #8B4B4B",
"@. c #954041",
"#. c #944949",
"$. c #865353",
"%. c #855C5C",
"&. c #885858",
"*. c #935253",
"=. c #925C5C",
"-. c #9E5959",
";. c #AD4C4D",
":. c #B25757",
">. c #8E6161",
",. c #956464",
"<. c #996666",
"1. c #9F6F6F",
"2. c #9B7676",
"3. c #9B7778",
"4. c #A26161",
"5. c #B36767",
"6. c #BE6F6F",
"7. c #A17272",
"8. c #A27979",
"9. c #AB7D7D",
"0. c #BB7171",
"q. c #B17A7B",
"w. c #BE7C7C",
"e. c #C4595A",
"r. c #DF5D5D",
"t. c #EF4744",
"y. c #ED4A46",
"u. c #EE4C49",
"i. c #F34442",
"p. c #F84445",
"a. c #F24D47",
"s. c #F84749",
"d. c #F54C4B",
"f. c #F84B4C",
"g. c #F5514E",
"h. c #EB5759",
"j. c #F75754",
"k. c #F95354",
"l. c #F85D51",
"z. c #F45B5B",
"x. c #F95C5C",
"c. c #D46F70",
"v. c #DE6F70",
"b. c #C57A7A",
"n. c #D57171",
"m. c #D57B7C",
"M. c #EA6363",
"N. c #E36D6D",
"B. c #EA6C6D",
"V. c #F96363",
"C. c #F4696B",
"Z. c #FA6B6C",
"A. c #E47373",
"S. c #EC7474",
"D. c #E47778",
"F. c #E57B7C",
"G. c #EB7A7A",
"H. c #F77374",
"J. c #FA7474",
"K. c #FA7779",
"L. c #F37979",
"P. c #FA7C7C",
"I. c #F99F2F",
"U. c #FA7F81",
"Y. c #AE8484",
"T. c #AB8D8D",
"R. c #B68383",
"E. c #B38C8C",
"W. c #B59292",
"Q. c #BA9697",
"!. c #B69898",
"~. c #B99B9B",
"^. c #BEA2A3",
"/. c #C48182",
"(. c #CE8282",
"). c #C48D8D",
"_. c #D18586",
"`. c #D48A8B",
"'. c #C79090",
"]. c #FA8384",
"[. c #FA8788",
"{. c #F28989",
"}. c #FB8B8B",
"|. c #E99D9D",
" X c #F69292",
".X c #FB9494",
"XX c #FB9799",
"oX c #FB9B9B",
"OX c #FC9FA0",
"+X c #C2A3A4",
"@X c #CAAEAE",
"#X c #D1ABAB",
"$X c #CEB5B5",
"%X c #D3B2B2",
"&X c #DEB2B2",
"*X c #D1BABA",
"=X c #E3A4A4",
"-X c #E7A9A9",
";X c #FCA3A3",
":X c #F5ACAC",
">X c #FCADAD",
",X c #FCB5B5",
"<X c #F3BCBC",
"1X c #FCBCBD",
"2X c #D6C2C2",
"3X c #D9C4C4",
"4X c #E7C4C5",
"5X c #FDC4C4",
"6X c #FDCCCC",
"7X c #F0D6D6",
"8X c #FED4D4",
"9X c #FEDCDC",
"0X c None",
/* pixels */
"0X0X0X0X0X0X0X0X0X0X0X0X0X0X0X0X0X0X0X0X0X0X0X0X0X0X0X0X0X0X0X0X",
"0X0X0X0X0X0X0Xa.0X0X0X0X0X0X0X0X0X0X0X0X0X0X0X0X0X0X0X0X0X0X0X0X",
"0X0X0X0X0XJ.V.x.l.g.g. . .! ! E E P 0X0X0X0X0X0X0X0X0X0X0X0X0X0X",
"0X0X0X0XU.>X>X;XoX.X}.[.P.J.V.x.j.g.d.d.i. .~ E k C 0X0X0X0X0X0X",
"0X0X0X0X].5X5X>X.X.X[.].P.K.Z.Z.V.x.j.f.s.p.) ) l.I.[ 0X0X0X0X0X",
"0X0X0X0XU.8X>X8X.X,X9XP.K.}.>X}.x.j.k.s.p.) / R n  .j j 0X0X0X0X",
"0X0X0X0XP.8XoX8X}.[.5XL.A.<XS.>XZ.oX>X,Xk.x..XV n T j j 0X0X0X0X",
"0X0X0X0XP.8XXX5X{.m.3XY.1.*X,.Q.0.-Xf.K.Z.R k.) n T j j 0X0X0X0X",
"0X0X0X0XJ.5X5X7XY.Y.3X@X8.$X=.W.7.+X#.n.V.n f.) n K h h 0X0X0X0X",
"0X0X0X0XJ. X'.W.9.Q.*X3X1.Q.$X*X<.~.=.<.;.c s.V.s.V h h 0X0X0X0X",
"0X0X0X0XH.).Y.9.9.7.0.N.M.M.V.r.;.+.E.Y.@ p :X,Xx.N h f 0X0X0X0X",
"0X0X0X0XN.@X2X9.q.D.P.Z.Z.V.x.j.k.( 6 .     O b n N f f 0X0X0X0X",
"0X0X0X0XZ.(.3Xb.L.,X,X5XJ.].,XoXs.Y W z o     + c m f f 0X0X0X0X",
"0X0X0X0XV.].4XP.K.1XJ.|.w.#X-.(.r./ OXk.x - W.; 1 b f f 0X0X0X0X",
"0X0X0X0XV.U.5X>X].1X5.!.8.+XO.$.$.# M.x.V x s &.  j f d 0X0X0X0X",
"0X0X0X0XV.OX9X9X[.%X3.!.2.~.= , &.X *.M.X.V H ,.< c f d 0X0X0X0X",
"0X0X0X0XV.P.K.P.c.,.!.^.*.e.=X&Xo.* 8.Y.G.V p.n.J.c d d 0X0X0X0X",
"0X0X0X0Xx.K.K.K.H.4.&.:.p.p.p.p.( a >.3.@.W ;X,XU.c d d 0X0X0X0X",
"0X0X0X0Xx.[.;X}.J.B.*.i.p.s.f.s.p.p.p X X S A V B c d d 0X0X0X0X",
"0X0X0X0Xx.1X}.1X].}.5Xx.f.h.`.D.f.f.J X 2 R U V B b d d 0X0X0X0X",
"0X0X0X0Xx.1XZ.OX].X.[.C.k.R.%.2.m.J.1X=Xx.) }.p.V b 4 4 0X0X0X0X",
"0X0X0X0Xk.1XZ..XV.X.].J.z.3.> > q.[.J.k..XW f.U.V b 4 4 0X0X0X0X",
"0X0X0X0Xk.OX;XOXx.X.].XX[.9., : 9.[.K.f.XX^ X.].V b 4 4 0X0X0X0X",
"0X0X0X0Xf.k.) s.W x.;X,XH.v.+XT._.U.U.s.oXW ) [.Z.b 4 4 0X0X0X0X",
"0X0X0X0X^ V Z P I ^  .p.f.k.z.C.k.f..X>Xx.) ;X1XoXb 3 3 0X0X0X0X",
"0X0X0X0X0X0 q e r y F J } y.u.u.u.i.i.( ^ R Y ^ Y b 3 3 0X0X0X0X",
"0X0X0X0X0X0X0X0X0X0X0X9 _ ` ' ] w t u D G G K N m g 5 0X0X0X0X0X",
"0X0X0X0X0X0X0X0X0X0X0X0X0X0X0X0X0X0X0X0X% 9 7 0 8 $ 0X0X0X0X0X0X",
"0X0X0X0X0X0X0X0X0X0X0X0X0X0X0X0X0X0X0X0X0X0X0X0X0X0X0X0X0X0X0X0X",
"0X0X0X0X0X0X0X0X0X0X0X0X0X0X0X0X0X0X0X0X0X0X0X0X0X0X0X0X0X0X0X0X",
"0X0X0X0X0X0X0X0X0X0X0X0X0X0X0X0X0X0X0X0X0X0X0X0X0X0X0X0X0X0X0X0X",
"0X0X0X0X0X0X0X0X0X0X0X0X0X0X0X0X0X0X0X0X0X0X0X0X0X0X0X0X0X0X0X0X"
};
